<!-- Generated by IcoMoon.io -->
<svg version="1.1" xmlns="http://www.w3.org/2000/svg" width="32" height="32" viewBox="0 0 32 32">
  <title>logout</title>
  <path
    d="M20 17.333c-0.737 0-1.333 0.597-1.333 1.333v5.333c0 0.735-0.597 1.333-1.333 1.333h-4v-20c0-1.139-0.725-2.156-1.816-2.535l-0.395-0.132h6.211c0.736 0 1.333 0.599 1.333 1.333v4c0 0.736 0.596 1.333 1.333 1.333s1.333-0.597 1.333-1.333v-4c0-2.205-1.795-4-4-4h-14.333c-0.051 0-0.093 0.023-0.143 0.029-0.064-0.005-0.126-0.029-0.191-0.029-1.471 0-2.667 1.196-2.667 2.666v24c0 1.139 0.725 2.156 1.816 2.535l8.024 2.675c0.272 0.084 0.542 0.124 0.827 0.124 1.471 0 2.666-1.196 2.666-2.667v-1.333h4c2.205 0 4-1.795 4-4v-5.333c0-0.736-0.596-1.333-1.333-1.333z"></path>
  <path
    d="M31.609 12.391l-5.333-5.333c-0.381-0.381-0.955-0.496-1.453-0.29-0.497 0.207-0.823 0.693-0.823 1.232v4h-5.333c-0.736 0-1.333 0.597-1.333 1.333s0.597 1.333 1.333 1.333h5.333v4c0 0.539 0.325 1.025 0.823 1.232 0.499 0.207 1.072 0.092 1.453-0.289l5.333-5.333c0.521-0.521 0.521-1.364 0-1.885z"></path>
</svg>
