<!-- Generated by IcoMoon.io -->
<svg version="1.1" xmlns="http://www.w3.org/2000/svg" width="32" height="32" viewBox="0 0 32 32">
<title>safari-pinned-tab</title>
<path d="M14.23 0.040c-0.223 0.058-0.442 0.215-0.536 0.384-0.045 0.085-0.094 0.156-0.107 0.156s-0.112 0.076-0.215 0.17c-0.371 0.335-0.393 0.778-0.058 1.068 0.098 0.089 0.103 0.103 0.031 0.13-0.040 0.018-0.13 0.004-0.197-0.027-0.42-0.192-0.693-0.17-0.889 0.071-0.089 0.112-0.103 0.165-0.085 0.362 0.018 0.21 0.004 0.25-0.107 0.371-0.232 0.25-0.21 0.603 0.063 0.925 0.089 0.098 0.219 0.206 0.295 0.237 0.13 0.054 0.134 0.067 0.112 0.241-0.013 0.098-0.036 0.393-0.045 0.652-0.018 0.425-0.031 0.478-0.121 0.545-0.286 0.219-0.366 0.295-0.483 0.46-0.116 0.17-0.228 0.442-0.255 0.612-0.036 0.219-0.036 0.299 0 0.518 0.018 0.134 0.089 0.344 0.156 0.469 0.067 0.13 0.125 0.246 0.134 0.259 0.004 0.013-0.483 0.022-1.086 0.022-1.359-0.004-1.56 0.027-1.832 0.308-0.143 0.152-0.197 0.25-0.232 0.429-0.027 0.13-0.045 0.282-0.036 0.335 0.009 0.089 0 0.094-0.13 0.054-0.206-0.067-2.766-0.076-3.053-0.009-0.371 0.085-0.59 0.295-0.679 0.657-0.049 0.206-0.045 0.246 0.13 0.737 0.098 0.286 0.407 1.126 0.684 1.859l0.505 1.341-0.188 0.192c-0.358 0.366-0.626 0.871-0.706 1.336-0.013 0.072-0.040 0.223-0.063 0.335-0.022 0.116-0.036 1.855-0.036 3.866 0.004 4.018-0.009 3.808 0.277 4.107l0.125 0.134-0.009 3.374c-0.004 3.651 0 3.692 0.237 4 0.063 0.085 0.147 0.156 0.183 0.156 0.031 0 0.063 0.018 0.063 0.040s0.067 0.054 0.147 0.076c0.076 0.018 2.101 0.040 4.492 0.049 4.085 0.013 4.349 0.018 4.371 0.094 0.121 0.371 0.286 0.585 0.572 0.737 0.17 0.094 0.255 0.098 1.269 0.112 0.898 0.013 1.122 0.004 1.301-0.058 0.277-0.089 0.563-0.375 0.666-0.657l0.076-0.215 2.57-0.004c2.842-0.004 2.731 0 3.263-0.107 0.773-0.156 1.242-0.402 1.658-0.867 0.362-0.407 0.496-0.72 0.666-1.569 0.049-0.259 0.049-5.94 0-6.235-0.054-0.291-0.067-0.362-0.139-0.603-0.031-0.112-0.054-0.21-0.054-0.223 0.004-0.013-0.080-0.161-0.188-0.335-0.174-0.282-0.183-0.317-0.13-0.407 0.036-0.049 0.089-0.197 0.121-0.317 0.049-0.188 0.049-0.264 0-0.442-0.063-0.219-0.304-0.903-0.375-1.068-0.022-0.049-0.232-0.612-0.465-1.251-0.237-0.639-0.447-1.211-0.474-1.269-0.040-0.094-0.027-0.13 0.094-0.241 0.197-0.183 0.487-0.585 0.59-0.822 0.049-0.107 0.134-0.384 0.192-0.608 0.107-0.411 0.107-0.416 0.107-3.271 0.004-3.084 0-3.16-0.228-3.415-0.273-0.299-0.434-0.331-1.89-0.335-1.426-0.004-1.636 0.027-1.913 0.322-0.125 0.13-0.255 0.501-0.255 0.733 0 0.116-0.004 0.116-0.143 0.072-0.085-0.027-0.675-0.049-1.385-0.054-0.684-0.004-1.251-0.022-1.265-0.031-0.022-0.022 0.125-0.518 0.161-0.55 0.009-0.009 0.098-0.067 0.201-0.13 0.894-0.554 1.046-1.748 0.313-2.463-0.139-0.134-0.188-0.215-0.179-0.295 0.013-0.13 0.018-0.384 0.013-0.514-0.004-0.049-0.045-0.259-0.094-0.469s-0.094-0.451-0.103-0.536c-0.036-0.38-0.174-0.858-0.358-1.234-0.232-0.469-0.277-0.523-0.666-0.8-0.192-0.134-0.282-0.228-0.264-0.268 0.040-0.112-0.076-0.492-0.192-0.617-0.058-0.063-0.107-0.143-0.107-0.179 0-0.121-0.273-0.442-0.438-0.509-0.21-0.089-0.514-0.049-0.697 0.094-0.223 0.165-0.442 0.219-0.688 0.165-0.116-0.022-0.358-0.054-0.536-0.067-0.223-0.018-0.425-0.067-0.63-0.156-0.326-0.147-0.621-0.197-0.836-0.143z"></path>
</svg>
