<?xml version="1.0" standalone="no"?>
<!DOCTYPE svg PUBLIC "-//W3C//DTD SVG 20010904//EN"
 "http://www.w3.org/TR/2001/REC-SVG-20010904/DTD/svg10.dtd">
<svg version="1.0" xmlns="http://www.w3.org/2000/svg"
 width="716.000000pt" height="716.000000pt" viewBox="0 0 716.000000 716.000000"
 preserveAspectRatio="xMidYMid meet">
<metadata>
Created by potrace 1.11, written by Peter Selinger 2001-2013
</metadata>
<g transform="translate(0.000000,716.000000) scale(0.100000,-0.100000)"
fill="#000000" stroke="none">
<path d="M3184 7151 c-50 -13 -99 -48 -120 -86 -10 -19 -21 -35 -24 -35 -3 0
-25 -17 -48 -38 -83 -75 -88 -174 -13 -239 22 -20 23 -23 7 -29 -9 -4 -29 -1
-44 6 -94 43 -155 38 -199 -16 -20 -25 -23 -37 -19 -81 4 -47 1 -56 -24 -83
-52 -56 -47 -135 14 -207 20 -22 49 -46 66 -53 29 -12 30 -15 25 -54 -3 -22
-8 -88 -10 -146 -4 -95 -7 -107 -27 -122 -64 -49 -82 -66 -108 -103 -26 -38
-51 -99 -57 -137 -8 -49 -8 -67 0 -116 4 -30 20 -77 35 -105 15 -29 28 -55 30
-58 1 -3 -108 -5 -243 -5 -304 1 -349 -6 -410 -69 -32 -34 -44 -56 -52 -96 -6
-29 -10 -63 -8 -75 2 -20 0 -21 -29 -12 -46 15 -619 17 -683 2 -83 -19 -132
-66 -152 -147 -11 -46 -10 -55 29 -165 22 -64 91 -252 153 -416 l113 -300 -42
-43 c-80 -82 -140 -195 -158 -299 -3 -16 -9 -50 -14 -75 -5 -26 -8 -415 -8
-865 1 -899 -2 -852 62 -919 l28 -30 -2 -755 c-1 -817 0 -826 53 -895 14 -19
33 -35 41 -35 7 0 14 -4 14 -9 0 -5 15 -12 33 -17 17 -4 470 -9 1005 -11 914
-3 973 -4 978 -21 27 -83 64 -131 128 -165 38 -21 57 -22 284 -25 201 -3 251
-1 291 13 62 20 126 84 149 147 l17 48 575 1 c636 1 611 0 730 24 173 35 278
90 371 194 81 91 111 161 149 351 11 58 11 1329 0 1395 -12 65 -15 81 -31 135
-7 25 -12 47 -12 50 1 3 -18 36 -42 75 -39 63 -41 71 -29 91 8 11 20 44 27 71
11 42 11 59 0 99 -14 49 -68 202 -84 239 -5 11 -52 137 -104 280 -53 143 -100
271 -106 284 -9 21 -6 29 21 54 44 41 109 131 132 184 11 24 30 86 43 136 24
92 24 93 24 732 1 690 0 707 -51 764 -61 67 -97 74 -423 75 -319 1 -366 -6
-428 -72 -28 -29 -57 -112 -57 -164 0 -26 -1 -26 -32 -16 -19 6 -151 11 -310
12 -153 1 -280 5 -283 7 -5 5 28 116 36 123 2 2 22 15 45 29 200 124 234 391
70 551 -31 30 -42 48 -40 66 3 29 4 86 3 115 -1 11 -10 58 -21 105 -11 47 -21
101 -23 120 -8 85 -39 192 -80 276 -52 105 -62 117 -149 179 -43 30 -63 51
-59 60 9 25 -17 110 -43 138 -13 14 -24 32 -24 40 0 27 -61 99 -98 114 -47 20
-115 11 -156 -21 -50 -37 -99 -49 -154 -37 -26 5 -80 12 -120 15 -50 4 -95 15
-141 35 -73 33 -139 44 -187 32z"/>
</g>
</svg>
